<svg width="806" height="873" viewBox="0 0 806 873" fill="none" xmlns="http://www.w3.org/2000/svg">
<g filter="url(#filter0_f_1_570)">
<path d="M648.669 68C562.912 68 493.273 137.039 492.335 222.564C492.335 388.612 393.368 488.343 213.278 492.718C132.08 498.388 68.002 566.043 68.002 648.667C68.002 735.007 137.99 805 224.335 805C306.929 805 374.562 740.942 380.276 659.795C382.951 477.34 458.537 380.667 648.669 380.667C735.014 380.667 805.002 310.673 805.002 224.333C805.002 137.993 735.014 68 648.669 68Z" fill="url(#paint0_radial_1_570)"/>
</g>
<g filter="url(#filter1_f_1_570)">
<circle cx="155.516" cy="155.516" r="155.516" transform="matrix(0.965926 -0.258819 -0.258819 -0.965926 111.502 844)" fill="url(#paint1_radial_1_570)"/>
</g>
<defs>
<filter id="filter0_f_1_570" x="0.00201416" y="0" width="873" height="873" filterUnits="userSpaceOnUse" color-interpolation-filters="sRGB">
<feFlood flood-opacity="0" result="BackgroundImageFix"/>
<feBlend mode="normal" in="SourceGraphic" in2="BackgroundImageFix" result="shape"/>
<feGaussianBlur stdDeviation="34" result="effect1_foregroundBlur_1_570"/>
</filter>
<filter id="filter1_f_1_570" x="54.9137" y="486.978" width="333.109" height="333.109" filterUnits="userSpaceOnUse" color-interpolation-filters="sRGB">
<feFlood flood-opacity="0" result="BackgroundImageFix"/>
<feBlend mode="normal" in="SourceGraphic" in2="BackgroundImageFix" result="shape"/>
<feGaussianBlur stdDeviation="5.5" result="effect1_foregroundBlur_1_570"/>
</filter>
<radialGradient id="paint0_radial_1_570" cx="0" cy="0" r="1" gradientUnits="userSpaceOnUse" gradientTransform="translate(173.73 709.257) rotate(-24.6962) scale(1304.46 1304.46)">
<stop offset="0.03125" stop-color="#2591D0" stop-opacity="0"/>
<stop offset="0.351396" stop-color="#2591D0" stop-opacity="0.73"/>
<stop offset="0.678366" stop-color="#012E6C" stop-opacity="0"/>
</radialGradient>
<radialGradient id="paint1_radial_1_570" cx="0" cy="0" r="1" gradientUnits="userSpaceOnUse" gradientTransform="translate(120.401 -0.765488) rotate(81.5883) scale(204.365)">
<stop offset="0.166667" stop-color="#2591D0" stop-opacity="0.14"/>
<stop offset="1" stop-color="#114A8D" stop-opacity="0"/>
</radialGradient>
</defs>
</svg>
