<svg width="820" height="820" viewBox="0 0 820 820" fill="none" xmlns="http://www.w3.org/2000/svg">
<path d="M819.5 410C819.5 636.161 636.161 819.5 410 819.5C183.839 819.5 0.5 636.161 0.5 410C0.5 183.839 183.839 0.5 410 0.5C636.161 0.5 819.5 183.839 819.5 410ZM761.006 411.36C761.006 605.01 604.021 761.994 410.372 761.994C216.722 761.994 59.7375 605.01 59.7375 411.36C59.7375 217.71 216.722 60.7261 410.372 60.7261C604.021 60.7261 761.006 217.71 761.006 411.36ZM410.372 762.994C604.574 762.994 762.006 605.562 762.006 411.36C762.006 217.158 604.574 59.7261 410.372 59.7261C216.169 59.7261 58.7375 217.158 58.7375 411.36C58.7375 605.562 216.169 762.994 410.372 762.994ZM704.06 411.367C704.06 573.569 572.569 705.06 410.366 705.06C248.164 705.06 116.673 573.569 116.673 411.367C116.673 249.164 248.164 117.673 410.366 117.673C572.569 117.673 704.06 249.164 704.06 411.367ZM410.366 706.06C573.121 706.06 705.06 574.121 705.06 411.367C705.06 248.612 573.121 116.673 410.366 116.673C247.611 116.673 115.673 248.612 115.673 411.367C115.673 574.121 247.611 706.06 410.366 706.06ZM647.125 411.373C647.125 542.128 541.128 648.126 410.373 648.126C279.618 648.126 173.62 542.128 173.62 411.373C173.62 280.618 279.618 174.62 410.373 174.62C541.128 174.62 647.125 280.618 647.125 411.373ZM410.373 649.126C541.68 649.126 648.125 542.68 648.125 411.373C648.125 280.066 541.68 173.62 410.373 173.62C279.065 173.62 172.62 280.066 172.62 411.373C172.62 542.68 279.065 649.126 410.373 649.126ZM577.53 411.36C577.53 503.679 502.69 578.518 410.371 578.518C318.052 578.518 243.212 503.679 243.212 411.36C243.212 319.04 318.052 244.201 410.371 244.201C502.69 244.201 577.53 319.04 577.53 411.36ZM410.371 579.518C503.242 579.518 578.53 504.231 578.53 411.36C578.53 318.488 503.242 243.201 410.371 243.201C317.499 243.201 242.212 318.488 242.212 411.36C242.212 504.231 317.499 579.518 410.371 579.518ZM520.595 411.366C520.595 472.238 471.249 521.584 410.377 521.584C349.506 521.584 300.159 472.238 300.159 411.366C300.159 350.494 349.506 301.148 410.377 301.148C471.249 301.148 520.595 350.494 520.595 411.366ZM410.377 522.584C471.801 522.584 521.595 472.79 521.595 411.366C521.595 349.942 471.801 300.148 410.377 300.148C348.953 300.148 299.159 349.942 299.159 411.366C299.159 472.79 348.953 522.584 410.377 522.584ZM463.649 411.372C463.649 440.797 439.796 464.65 410.372 464.65C380.948 464.65 357.095 440.797 357.095 411.372C357.095 381.948 380.948 358.095 410.372 358.095C439.796 358.095 463.649 381.948 463.649 411.372ZM410.372 465.65C440.349 465.65 464.649 441.349 464.649 411.372C464.649 381.396 440.349 357.095 410.372 357.095C380.395 357.095 356.095 381.396 356.095 411.372C356.095 441.349 380.395 465.65 410.372 465.65Z" stroke="url(#paint0_linear_1_7242)"/>
<defs>
<linearGradient id="paint0_linear_1_7242" x1="410" y1="104" x2="410" y2="736" gradientUnits="userSpaceOnUse">
<stop stop-color="#2591D0"/>
<stop offset="0.529341" stop-color="#2591D0" stop-opacity="0"/>
<stop offset="1" stop-color="#2591D0"/>
</linearGradient>
</defs>
</svg>
