<svg width="132" height="134" viewBox="0 0 132 134" fill="none" xmlns="http://www.w3.org/2000/svg">
<g clip-path="url(#clip0_1_385)">
<line x1="0.512124" y1="-22.551" x2="0.512112" y2="155.809" stroke="#2591D0" stroke-width="0.512529"/>
<line x1="8.71259" y1="-22.551" x2="8.71258" y2="155.809" stroke="#2591D0" stroke-width="0.512529"/>
<line x1="16.9131" y1="-22.551" x2="16.9131" y2="155.809" stroke="#2591D0" stroke-width="0.512529"/>
<line x1="25.1135" y1="-22.551" x2="25.1135" y2="155.809" stroke="#2591D0" stroke-width="0.512529"/>
<line x1="33.314" y1="-22.551" x2="33.314" y2="155.809" stroke="#2591D0" stroke-width="0.512529"/>
<line x1="41.5144" y1="-22.551" x2="41.5144" y2="155.809" stroke="#2591D0" stroke-width="0.512529"/>
<line x1="49.7149" y1="-22.551" x2="49.7149" y2="155.809" stroke="#2591D0" stroke-width="0.512529"/>
<line x1="57.9154" y1="-22.551" x2="57.9154" y2="155.809" stroke="#2591D0" stroke-width="0.512529"/>
<line x1="66.1159" y1="-22.551" x2="66.1158" y2="155.809" stroke="#2591D0" stroke-width="0.512529"/>
<line x1="74.3164" y1="-22.551" x2="74.3163" y2="155.809" stroke="#2591D0" stroke-width="0.512529"/>
<line x1="82.5168" y1="-22.551" x2="82.5168" y2="155.809" stroke="#2591D0" stroke-width="0.512529"/>
<line x1="90.7173" y1="-22.551" x2="90.7173" y2="155.809" stroke="#2591D0" stroke-width="0.512529"/>
<line x1="98.9178" y1="-22.551" x2="98.9177" y2="155.809" stroke="#2591D0" stroke-width="0.512529"/>
<line x1="107.118" y1="-22.551" x2="107.118" y2="155.809" stroke="#2591D0" stroke-width="0.512529"/>
<line x1="115.319" y1="-22.551" x2="115.319" y2="155.809" stroke="#2591D0" stroke-width="0.512529"/>
<line x1="123.519" y1="-22.551" x2="123.519" y2="155.809" stroke="#2591D0" stroke-width="0.512529"/>
</g>
<defs>
<clipPath id="clip0_1_385">
<rect x="0.255859" width="131.207" height="133.257" rx="65.6037" fill="white"/>
</clipPath>
</defs>
</svg>
