<svg width="42" height="35" viewBox="0 0 42 35" fill="none" xmlns="http://www.w3.org/2000/svg">
<path fill-rule="evenodd" clip-rule="evenodd" d="M15.1709 0.314017C6.16052 6.09786 1.15516 12.8289 0.153607 20.5108C-1.40556 32.4672 9.29201 38.3192 14.7126 33.0616C20.1332 27.8028 16.8844 21.1292 12.9596 19.3041C9.03474 17.4802 6.63437 18.1152 7.05318 15.6766C7.47199 13.2392 13.0553 6.47938 17.9614 3.33152C18.1352 3.18376 18.2461 2.97527 18.2715 2.74858C18.2968 2.5219 18.2347 2.29408 18.0978 2.1116L16.8844 0.534081C16.3579 -0.15003 15.853 -0.123718 15.1709 0.312821M38.8946 0.314021C29.8842 6.09786 24.8777 12.8301 23.8773 20.5108C22.3182 32.4672 33.0157 38.3192 38.4363 33.0616C43.8569 27.8028 40.6081 21.1292 36.6821 19.3041C32.7573 17.4802 30.3569 18.1152 30.7757 15.6766C31.1945 13.2392 36.779 6.47939 41.6851 3.33152C41.8587 3.1836 41.9694 2.97503 41.9946 2.74835C42.0197 2.52167 41.9573 2.29394 41.8203 2.11161L40.6069 0.534085C40.0804 -0.150025 39.5755 -0.123714 38.8946 0.312825" fill="#2591D0"/>
</svg>
