<svg width="42" height="48" viewBox="0 0 42 48" fill="none" xmlns="http://www.w3.org/2000/svg">
<path d="M32.6878 13.3397H9.31222V9.07561H32.6878V13.3397Z" fill="url(#paint0_linear_647_202)"/>
<path fill-rule="evenodd" clip-rule="evenodd" d="M33.1516 13.8135H8.84842V8.60182H33.1516V13.8135ZM32.6878 13.3397V9.07561H9.31222V13.3397H32.6878Z" fill="url(#paint1_linear_647_202)"/>
<path d="M9.31222 20.1623H26.8439V15.8982H9.31222V20.1623Z" fill="url(#paint2_linear_647_202)"/>
<path fill-rule="evenodd" clip-rule="evenodd" d="M8.84842 20.6361V15.4244H27.3077V20.6361H8.84842ZM26.8439 20.1623H9.31222V15.8982H26.8439V20.1623Z" fill="url(#paint3_linear_647_202)"/>
<path fill-rule="evenodd" clip-rule="evenodd" d="M23.3528 47.0262H0.963801V0.97379H41.0362V28.6905L23.3528 47.0262ZM21.2656 26.5585H36.862V5.2379H5.13801V42.7621H21.2656V26.5585ZM25.4399 38.7863L33.1203 30.8226H25.4399V38.7863Z" fill="url(#paint4_linear_647_202)"/>
<path fill-rule="evenodd" clip-rule="evenodd" d="M23.5469 47.5H0.5V0.5H41.5V28.8847L23.5469 47.5ZM20.8018 26.0847H36.3982V5.71169H5.60181V42.2883H20.8018V26.0847ZM21.2656 42.7621H5.13801V5.2379H36.862V26.5585H21.2656V42.7621ZM33.1203 30.8226H25.4399V38.7863L33.1203 30.8226ZM32.0123 31.2964H25.9037V37.6303L32.0123 31.2964ZM23.3528 47.0262L41.0362 28.6905V0.97379H0.963801V47.0262H23.3528Z" fill="url(#paint5_linear_647_202)"/>
<defs>
<linearGradient id="paint0_linear_647_202" x1="21" y1="0.5" x2="4.23592" y2="43.1533" gradientUnits="userSpaceOnUse">
<stop stop-color="#026DC6"/>
<stop offset="1" stop-color="#4DBDFF"/>
</linearGradient>
<linearGradient id="paint1_linear_647_202" x1="21" y1="0.5" x2="4.23592" y2="43.1533" gradientUnits="userSpaceOnUse">
<stop stop-color="#026DC6"/>
<stop offset="1" stop-color="#4DBDFF"/>
</linearGradient>
<linearGradient id="paint2_linear_647_202" x1="21" y1="0.5" x2="4.23592" y2="43.1533" gradientUnits="userSpaceOnUse">
<stop stop-color="#026DC6"/>
<stop offset="1" stop-color="#4DBDFF"/>
</linearGradient>
<linearGradient id="paint3_linear_647_202" x1="21" y1="0.5" x2="4.23592" y2="43.1533" gradientUnits="userSpaceOnUse">
<stop stop-color="#026DC6"/>
<stop offset="1" stop-color="#4DBDFF"/>
</linearGradient>
<linearGradient id="paint4_linear_647_202" x1="21" y1="0.5" x2="4.23592" y2="43.1533" gradientUnits="userSpaceOnUse">
<stop stop-color="#026DC6"/>
<stop offset="1" stop-color="#4DBDFF"/>
</linearGradient>
<linearGradient id="paint5_linear_647_202" x1="21" y1="0.5" x2="4.23592" y2="43.1533" gradientUnits="userSpaceOnUse">
<stop stop-color="#026DC6"/>
<stop offset="1" stop-color="#4DBDFF"/>
</linearGradient>
</defs>
</svg>
