<svg width="52" height="52" viewBox="0 0 52 52" fill="none" xmlns="http://www.w3.org/2000/svg">
<path fill-rule="evenodd" clip-rule="evenodd" d="M11.3865 42.6368C14.9712 44.3545 20.1343 45.5 26 45.5C31.8657 45.5 37.0288 44.3545 40.6135 42.6368C44.4161 40.8147 45.5 38.88 45.5 37.7188H51.5C51.5 42.5118 47.5471 45.9677 43.2063 48.0477C38.6476 50.232 32.5607 51.5 26 51.5C19.4393 51.5 13.3524 50.232 8.79374 48.0477C4.45287 45.9677 0.5 42.5118 0.5 37.7188H6.5C6.5 38.88 7.58392 40.8147 11.3865 42.6368Z" fill="url(#paint0_linear_647_25)"/>
<path fill-rule="evenodd" clip-rule="evenodd" d="M11.4317 31.2717C15.0051 33.0583 20.1515 34.25 26 34.25C31.8485 34.25 36.9949 33.0583 40.5683 31.2717C44.321 29.3953 45.5 27.3581 45.5 26H51.5C51.5 30.8551 47.6422 34.4429 43.2515 36.6382C38.6815 38.9233 32.5779 40.25 26 40.25C19.422 40.25 13.3185 38.9233 8.74846 36.6382C4.35784 34.4429 0.5 30.8551 0.5 26H6.5C6.5 27.3581 7.67895 29.3953 11.4317 31.2717Z" fill="url(#paint1_linear_647_25)"/>
<path fill-rule="evenodd" clip-rule="evenodd" d="M11.3865 9.3632C7.58392 11.1853 6.5 13.12 6.5 14.2812C6.5 15.4425 7.58392 17.3773 11.3865 19.1993C14.9712 20.917 20.1343 22.0625 26 22.0625C31.8657 22.0625 37.0288 20.917 40.6135 19.1993C44.4161 17.3773 45.5 15.4425 45.5 14.2812C45.5 13.12 44.4161 11.1853 40.6135 9.3632C37.0288 7.64551 31.8657 6.5 26 6.5C20.1343 6.5 14.9712 7.64551 11.3865 9.3632ZM8.79374 3.95231C13.3524 1.76796 19.4393 0.5 26 0.5C32.5607 0.5 38.6476 1.76796 43.2063 3.95231C47.5471 6.0323 51.5 9.48821 51.5 14.2812C51.5 19.0743 47.5471 22.5302 43.2063 24.6102C38.6476 26.7945 32.5607 28.0625 26 28.0625C19.4393 28.0625 13.3524 26.7945 8.79374 24.6102C4.45287 22.5302 0.5 19.0743 0.5 14.2812C0.5 9.48821 4.45287 6.0323 8.79374 3.95231Z" fill="url(#paint2_linear_647_25)"/>
<defs>
<linearGradient id="paint0_linear_647_25" x1="26" y1="0.5" x2="9.60715" y2="48.3125" gradientUnits="userSpaceOnUse">
<stop stop-color="#026DC6"/>
<stop offset="1" stop-color="#4DBDFF"/>
</linearGradient>
<linearGradient id="paint1_linear_647_25" x1="26" y1="0.5" x2="9.60715" y2="48.3125" gradientUnits="userSpaceOnUse">
<stop stop-color="#026DC6"/>
<stop offset="1" stop-color="#4DBDFF"/>
</linearGradient>
<linearGradient id="paint2_linear_647_25" x1="26" y1="0.5" x2="9.60715" y2="48.3125" gradientUnits="userSpaceOnUse">
<stop stop-color="#026DC6"/>
<stop offset="1" stop-color="#4DBDFF"/>
</linearGradient>
</defs>
</svg>
